<svg xmlns="http://www.w3.org/2000/svg" width="1920" height="1080" viewBox="0 0 1920 1080">
  <rect width="1920" height="1080" fill="#f4f1ea"/>
  <g fill="none" stroke="#3b3a36" stroke-width="5" stroke-linecap="round" stroke-linejoin="round">
    <path d="M150 120 L1770 124 L1766 960 L154 956 Z"/>
    <path d="M154 210 L1766 214"/>
    <path d="M250 300 L880 304 L876 860 L246 856 Z"/>
    <path d="M300 800 L520 520 L640 660 L720 580 L830 800"/>
    <circle cx="720" cy="420" r="46"/>
    <path d="M1000 310 L1580 312" stroke-width="12"/>
    <path d="M1000 380 L1420 382" stroke-width="7"/>
    <path d="M1000 520 L1260 522" stroke="#b82b2b" stroke-width="16"/>
    <path d="M1000 600 L1070 598 L1072 668 L1002 670 Z"/>
    <path d="M1100 600 L1170 598 L1172 668 L1102 670 Z"/>
    <path d="M1200 600 L1270 598 L1272 668 L1202 670 Z" stroke="#b82b2b" stroke-width="8"/>
    <path d="M1000 760 L1520 762 L1518 850 L998 848 Z" stroke-width="7"/>
  </g>
  <g fill="#3b3a36" font-family="Marker Felt, Comic Sans MS, sans-serif" font-size="34">
    <text x="1290" y="530" fill="#b82b2b">sale price</text>
    <text x="1300" y="650">only the swatch on sale</text>
    <text x="1170" y="818">Add to cart</text>
    <text x="190" y="180">product page, buy box</text>
  </g>
</svg>
